<?xml version="1.0" encoding="UTF-8"?>
<!DOCTYPE svg PUBLIC "-//W3C//DTD SVG 1.1//EN" "http://www.w3.org/Graphics/SVG/1.1/DTD/svg11.dtd">
<!-- Creator: CorelDRAW 2018 (64 Bit Versão de avaliação) -->
<svg xmlns="http://www.w3.org/2000/svg" xml:space="preserve" width="210mm" height="297mm" version="1.1" style="shape-rendering:geometricPrecision; text-rendering:geometricPrecision; image-rendering:optimizeQuality; fill-rule:evenodd; clip-rule:evenodd"
viewBox="0 0 21000 29700"
 xmlns:xlink="http://www.w3.org/1999/xlink">
 <defs>
  <style type="text/css">
   <![CDATA[
    .str0 {stroke:#FEFEFE;stroke-width:20;stroke-miterlimit:22.9256}
    .fil0 {fill:#FEFEFE}
    .fil1 {fill:black}
   ]]>
  </style>
 </defs>
 <g id="Camada_x0020_1">
  <metadata id="CorelCorpID_0Corel-Layer"/>
  <path class="fil0 str0" d="M10500 4350c254.48,0 506.71,9.84 756.66,28.13 -250.19,-18.29 -502.68,-28.11 -757.43,-28.11l1.48 0.76c-983.31,0 -1934.81,138.95 -2837.3,398.01 902.34,-259.58 1853.61,-398.79 2836.59,-398.79zm10499.85 10777.65c0.01,4.2 0.15,8.37 0.15,12.57 0,37.86 -0.84,75.51 -1.39,113.23 0.51,-41.9 1.19,-83.78 1.24,-125.8zm-2.42 221.44c-108.4,5862.82 -4766.41,10581.36 -10497.43,10581.36 -5729.47,0 -10386.55,-4715.98 -10497.37,-10576.59 98.43,4654.88 3075.67,8578.11 7175.19,9977.34 527.11,101.72 717.37,-231.4 717.37,-519.52 0,-255.56 -5.96,-931.73 -9.93,-1829.38 -2922.53,648.7 -3538.2,-1447.18 -3538.2,-1447.18 -478.49,-1240.69 -1168.81,-1573.82 -1168.81,-1573.82 -950.29,-665.48 75.41,-651.24 75.41,-651.24 1052.72,73.24 1606.62,1106.68 1606.62,1106.68 936.64,1647.06 2457.2,1170.77 3058.97,893.59 91.78,-693.71 365.62,-1170.77 663.53,-1436.5 -2331.18,-269.81 -4782.42,-1194.92 -4782.42,-5320.06 0,-1178.14 406.8,-2137.59 1079.52,-2891.05 -116.09,-269.81 -471.8,-1366.57 92.52,-2849.35 0,0 878.85,-287.36 2887.81,1104.13 840.65,-238.78 1733.38,-358.04 2625.12,-363.89 892.49,6.1 1784.48,125.88 2625.13,363.89 1997.06,-1391.49 2875.16,-1104.13 2875.16,-1104.13 563.82,1482.78 208.11,2578.78 105.67,2849.35 666.26,753.46 1073.07,1713.67 1073.07,2891.05 0,4134.54 -2454.47,5046.18 -4788.38,5309.12 364.88,322.19 706.95,985.13 706.95,1990.86 0,1439.8 -13.15,2599.89 -13.15,2950.3 0,279.98 183.8,616.41 724.56,508.08 4131.08,-1385.09 7106.25,-5312.98 7203.09,-9963.04zm-20996.36 -121.69c-0.23,-29.09 -1.07,-58.03 -1.07,-87.18 0,-3.19 0.12,-6.35 0.12,-9.54 0.15,32.27 0.63,64.47 0.95,96.72z"/>
  <path class="fil1" d="M10480.71 4225.26c-5801.17,0 -10500.74,4887.72 -10500.74,10911.34 0,4823.54 3008.61,8911.98 7177.85,10354.35 527.11,103.1 717.37,-234.55 717.37,-526.59 0,-259.03 -5.96,-944.39 -9.93,-1854.25 -2922.53,657.52 -3538.2,-1466.86 -3538.2,-1466.86 -478.49,-1257.56 -1168.81,-1595.21 -1168.81,-1595.21 -950.29,-674.54 75.41,-660.1 75.41,-660.1 1052.72,74.23 1606.62,1121.73 1606.62,1121.73 936.64,1669.44 2457.2,1186.68 3058.97,905.73 91.78,-703.14 365.62,-1186.68 663.53,-1456.03 -2331.18,-273.47 -4782.42,-1211.17 -4782.42,-5392.39 0,-1194.16 406.8,-2166.65 1079.52,-2930.37 -116.09,-273.47 -471.8,-1385.15 92.52,-2888.09 0,0 878.85,-291.26 2887.81,1119.15 840.65,-242.02 1733.38,-362.91 2625.12,-368.84 892.49,6.19 1784.48,127.59 2625.13,368.84 1997.06,-1410.41 2875.16,-1119.15 2875.16,-1119.15 563.82,1502.94 208.11,2613.85 105.67,2888.09 666.26,763.72 1073.07,1736.98 1073.07,2930.37 0,4190.76 -2454.47,5114.79 -4788.38,5381.31 364.88,326.57 706.95,998.52 706.95,2017.92 0,1459.38 -13.15,2635.24 -13.15,2990.42 0,283.78 183.8,624.79 724.56,514.99 4200.24,-1427.42 7205.63,-5519.21 7205.63,-10335.79 0,-6023.88 -4699.82,-10911.34 -10500.74,-10911.34l1.48 0.77z"/>
 </g>
</svg>
